<?xml version="1.0" encoding="UTF-8"?>
<svg id="_Слой_1" data-name="Слой 1" xmlns="http://www.w3.org/2000/svg" viewBox="0 0 133.65 14.75">
    <defs>
        <style>
            .cls-1 {
            fill: #fff;
            }

            .cls-2 {
            opacity: .3;
            }
        </style>
    </defs>
    <g class="cls-2">
        <g>
            <path class="cls-1" d="M50.61.37l1.08,14.04h-5.15l-.54-11.9h1.24l-9.16,11.9h-5.15L44.18.37h6.44ZM38.3,12.05l1.39-3.84h9.56l-1.39,3.84h-9.56Z"/>
            <path class="cls-1" d="M60.23,12.11l-1.55-.02,6.33-8.44h5.05l-8.78,10.76h-5.43l-.99-10.76h5.24l.12,8.46Z"/>
            <path class="cls-1" d="M79.65,9.04c-.54,1.15-1.21,2.15-2.01,3-.8.85-1.69,1.52-2.65,1.99-.96.47-1.96.71-2.98.71s-1.88-.24-2.5-.71c-.62-.47-1-1.14-1.13-2-.13-.86,0-1.86.42-2.99.42-1.15,1-2.15,1.76-3.01.75-.86,1.61-1.53,2.58-2,.96-.47,1.97-.71,3.02-.71s1.85.23,2.47.7c.62.47,1.03,1.13,1.22,1.98.19.85.13,1.87-.18,3.04ZM73.59,9.04c-.15.41-.2.78-.14,1.09.05.32.2.57.44.76.24.19.56.28.96.28s.84-.09,1.3-.28c.45-.19.89-.44,1.29-.76.41-.32.74-.68,1.01-1.09.04-.41-.03-.78-.21-1.1-.18-.32-.42-.58-.74-.77-.32-.19-.68-.28-1.1-.28s-.79.09-1.16.28c-.37.19-.7.44-.99.77-.29.32-.5.69-.65,1.1ZM76.71,14.41l.83-3.8,1.11-1.57.02-1.55,1.93-3.84h4.94l-2.69,5.37-1.2,5.39h-4.94Z"/>
            <path class="cls-1" d="M99,9.68c-.45,1.01-1.13,1.9-2.03,2.66-.9.76-1.93,1.35-3.09,1.78s-2.37.64-3.63.64c-1.37,0-2.5-.24-3.37-.72-.88-.48-1.45-1.15-1.72-2.01-.28-.86-.21-1.85.2-2.98.41-1.14,1.06-2.13,1.96-2.99.9-.85,1.96-1.53,3.18-2.01,1.22-.49,2.52-.73,3.89-.73,1.26,0,2.32.21,3.17.64.85.42,1.45,1.01,1.8,1.77.35.76.38,1.64.1,2.67h-4.7c.08-.54-.02-.94-.32-1.21-.3-.27-.73-.4-1.3-.4-.44,0-.85.08-1.24.25-.39.17-.74.42-1.03.76s-.54.75-.72,1.25-.24.91-.19,1.24c.05.33.22.58.49.75.27.17.62.25,1.06.25.57,0,1.11-.15,1.61-.44.5-.29.89-.68,1.18-1.17h4.7Z"/>
            <path class="cls-1" d="M104.62,0h4.75l-5.22,14.41h-4.75l5.22-14.41ZM111.9,3.31c1.05,0,1.87.21,2.45.63.58.42.94,1,1.06,1.76.12.76,0,1.64-.37,2.65l-2.2,6.06h-4.75l1.95-5.39c.22-.6.22-1.06,0-1.38-.21-.32-.62-.49-1.22-.49-.42,0-.82.08-1.19.25-.37.17-.69.41-.97.73-.28.32-.5.7-.66,1.15l-1.15-.71c.6-1.17,1.29-2.15,2.07-2.93.78-.78,1.6-1.36,2.45-1.75.85-.39,1.69-.58,2.51-.58Z"/>
            <path class="cls-1" d="M127.75,9.04c-.54,1.15-1.21,2.15-2.01,3-.8.85-1.69,1.52-2.65,1.99-.96.47-1.96.71-2.98.71s-1.88-.24-2.5-.71c-.62-.47-1-1.14-1.13-2-.13-.86,0-1.86.42-2.99.42-1.15,1-2.15,1.75-3.01.75-.86,1.61-1.53,2.58-2,.96-.47,1.97-.71,3.02-.71s1.85.23,2.47.7c.62.47,1.03,1.13,1.22,1.98.19.85.13,1.87-.18,3.04ZM121.69,9.04c-.15.41-.2.78-.14,1.09.05.32.2.57.44.76.24.19.56.28.96.28s.84-.09,1.3-.28c.45-.19.89-.44,1.29-.76.41-.32.74-.68,1-1.09.04-.41-.03-.78-.21-1.1-.18-.32-.42-.58-.74-.77-.32-.19-.68-.28-1.1-.28s-.79.09-1.16.28c-.37.19-.7.44-.99.77-.29.32-.5.69-.65,1.1ZM124.82,14.41l.83-3.8,1.11-1.57.02-1.55,1.93-3.84h4.94l-2.69,5.37-1.2,5.39h-4.94Z"/>
        </g>
        <path class="cls-1" d="M.39,12.07C4,8.57,7.61,5.07,11.21,1.58c.72-.69,1.91-.34,2.14.63.81,3.5,1.62,6.99,2.43,10.49.19.8-.42,1.57-1.25,1.57H1.28c-1.15,0-1.72-1.4-.89-2.2Z"/>
        <path class="cls-1" d="M32.8,2.2c-3.61,3.5-7.22,6.99-10.82,10.49-.72.69-1.91.34-2.14-.63-.81-3.5-1.62-6.99-2.43-10.49C17.22.77,17.83,0,18.66,0h13.25c1.15,0,1.72,1.4.89,2.2Z"/>
    </g>
</svg>